PathFileType	4	(X/Y/Z)	 D:\Google Drive\Share to the world\OpenSim\ScaleTool\TRC\Walk_Mkrs.trc
DataRate	CameraRate	NumFrames	NumMarkers	Units	OrigDataRate	OrigDataStartFrame	OrigNumFrames
100	100	10	34	m	100	136	542
Frame#	time	C7			T10			CLAV			STRN			LSHO			LELB			LWRA			LWRB			LFIN			RSHO			RELB			RWRA			RWRB			RFIN			LASI			RASI			LPSI			RPSI			LTHI			LKNE			LTIB			LANK			LHEE			LTOE			RTHI			RKNE			RTIB			RANK			RHEE			RTOE			RPINKY			LPINKY			INRKNE			INLKNE			
		X1	Y1	Z1	X2	Y2	Z2	X3	Y3	Z3	X4	Y4	Z4	X5	Y5	Z5	X6	Y6	Z6	X7	Y7	Z7	X8	Y8	Z8	X9	Y9	Z9	X10	Y10	Z10	X11	Y11	Z11	X12	Y12	Z12	X13	Y13	Z13	X14	Y14	Z14	X15	Y15	Z15	X16	Y16	Z16	X17	Y17	Z17	X18	Y18	Z18	X19	Y19	Z19	X20	Y20	Z20	X21	Y21	Z21	X22	Y22	Z22	X23	Y23	Z23	X24	Y24	Z24	X25	Y25	Z25	X26	Y26	Z26	X27	Y27	Z27	X28	Y28	Z28	X29	Y29	Z29	X30	Y30	Z30	X31	Y31	Z31	X32	Y32	Z32	X33	Y33	Z33	X34	Y34	Z34	

136	1.3500	-2.114450	1.505060	0.167090	-2.165120	1.260090	0.172680	-1.975960	1.396190	0.180390	-1.954600	1.242540	0.182400	-2.045290	1.462870	-0.005150	-2.046790	1.145160	-0.073650	-1.964710	0.905460	-0.020580	-2.013590	0.898670	-0.065770	-1.968510	0.829430	-0.065200	-2.058880	1.475690	0.345470	-2.077630	1.162130	0.456890	-1.946660	0.952600	0.404580	-1.982620	0.939610	0.451840	-1.937000	0.882720	0.444500	-1.982220	0.975550	0.067310	-2.003260	0.981820	0.332960	-2.140930	1.089590	0.133910	-2.146750	1.090320	0.220360	-2.064170	0.677960	0.025060	-2.104870	0.491820	0.048260	-2.143950	0.293510	0.037590	-2.144500	0.088300	0.085050	-2.194720	0.105370	0.123550	-1.995620	0.050730	0.139480	-2.090180	0.684560	0.364310	-2.107360	0.494730	0.347900	-2.139280	0.320530	0.363000	-2.138310	0.077020	0.321200	-2.191370	0.097480	0.275310	-1.984290	0.050510	0.300620	-2.038240	0.035470	0.356290	-2.041810	0.041320	0.054570	-2.101350	0.489550	0.245420	-2.123370	0.485160	0.151640	
137	1.3600	-2.112970	1.505080	0.165770	-2.164020	1.260220	0.171380	-1.974580	1.396070	0.179180	-1.953440	1.242380	0.181250	-2.043660	1.462710	-0.006460	-2.045120	1.144890	-0.074570	-1.963610	0.905100	-0.021040	-2.012260	0.898380	-0.066400	-1.967290	0.829070	-0.065670	-2.057470	1.475760	0.344170	-2.076600	1.162300	0.455750	-1.945770	0.952660	0.403530	-1.981730	0.939710	0.450790	-1.936120	0.882800	0.443500	-1.981370	0.975440	0.066280	-2.002500	0.981910	0.331870	-2.140070	1.089570	0.132700	-2.145860	1.090380	0.219160	-2.063220	0.677850	0.024260	-2.103850	0.491660	0.047600	-2.143270	0.293340	0.037140	-2.144470	0.088220	0.084940	-2.194730	0.105300	0.123380	-1.995660	0.050710	0.139540	-2.089060	0.684570	0.363710	-2.106020	0.494710	0.347280	-2.138440	0.320610	0.362590	-2.138250	0.077410	0.321130	-2.191250	0.097950	0.275210	-1.984290	0.050510	0.300600	-2.038280	0.035660	0.356270	-2.041820	0.041290	0.054560	-2.100070	0.489420	0.244790	-2.122520	0.485150	0.151040	
138	1.3700	-2.111450	1.505110	0.164420	-2.162900	1.260380	0.170040	-1.973160	1.395950	0.177950	-1.952260	1.242230	0.180090	-2.041980	1.462570	-0.007790	-2.043370	1.144620	-0.075490	-1.962460	0.904740	-0.021500	-2.010890	0.898080	-0.067030	-1.966020	0.828710	-0.066120	-2.056030	1.475830	0.342860	-2.075620	1.162480	0.454590	-1.944970	0.952670	0.402510	-1.980940	0.939800	0.449770	-1.935380	0.882850	0.442530	-1.980510	0.975330	0.065230	-2.001710	0.982000	0.330760	-2.139200	1.089560	0.131470	-2.144960	1.090440	0.217930	-2.062230	0.677740	0.023450	-2.102770	0.491480	0.046940	-2.142570	0.293180	0.036710	-2.144440	0.088160	0.084830	-2.194740	0.105230	0.123210	-1.995690	0.050680	0.139590	-2.087810	0.684590	0.363090	-2.104510	0.494680	0.346640	-2.137480	0.320700	0.362160	-2.138170	0.077850	0.321050	-2.191110	0.098480	0.275110	-1.984280	0.050510	0.300560	-2.038320	0.035870	0.356250	-2.041840	0.041250	0.054530	-2.098610	0.489290	0.244130	-2.121550	0.485120	0.150450	
139	1.3800	-2.109890	1.505160	0.163060	-2.161750	1.260550	0.168680	-1.971710	1.395830	0.176710	-1.951050	1.242090	0.178920	-2.040240	1.462440	-0.009140	-2.041540	1.144360	-0.076420	-1.961240	0.904390	-0.021940	-2.009460	0.897790	-0.067640	-1.964700	0.828340	-0.066550	-2.054560	1.475910	0.341530	-2.074680	1.162680	0.453410	-1.944240	0.952650	0.401530	-1.980260	0.939850	0.448770	-1.934770	0.882860	0.441590	-1.979630	0.975240	0.064160	-2.000900	0.982120	0.329620	-2.138310	1.089550	0.130210	-2.144040	1.090510	0.216680	-2.061190	0.677640	0.022650	-2.101640	0.491310	0.046280	-2.141880	0.293040	0.036300	-2.144410	0.088090	0.084730	-2.194750	0.105160	0.123060	-1.995710	0.050640	0.139630	-2.086420	0.684600	0.362460	-2.102820	0.494650	0.345980	-2.136380	0.320800	0.361700	-2.138070	0.078340	0.320970	-2.190940	0.099090	0.275000	-1.984270	0.050510	0.300530	-2.038360	0.036100	0.356220	-2.041860	0.041210	0.054480	-2.096960	0.489170	0.243440	-2.120450	0.485080	0.149880	
140	1.3900	-2.108280	1.505240	0.161670	-2.160580	1.260730	0.167280	-1.970240	1.395720	0.175460	-1.949810	1.241960	0.177730	-2.038430	1.462320	-0.010500	-2.039620	1.144110	-0.077360	-1.959920	0.904040	-0.022390	-2.007970	0.897510	-0.068230	-1.963350	0.827970	-0.066960	-2.053070	1.476000	0.340190	-2.073780	1.162890	0.452210	-1.943620	0.952600	0.400580	-1.979700	0.939890	0.447790	-1.934300	0.882840	0.440690	-1.978730	0.975150	0.063070	-2.000080	0.982260	0.328460	-2.137420	1.089550	0.128930	-2.143110	1.090590	0.215400	-2.060110	0.677550	0.021860	-2.100460	0.491130	0.045620	-2.141180	0.292900	0.035910	-2.144390	0.088020	0.084640	-2.194760	0.105100	0.122930	-1.995720	0.050610	0.139660	-2.084900	0.684620	0.361790	-2.100930	0.494610	0.345300	-2.135150	0.320900	0.361210	-2.137950	0.078900	0.320860	-2.190740	0.099780	0.274860	-1.984240	0.050510	0.300480	-2.038390	0.036340	0.356190	-2.041880	0.041160	0.054430	-2.095090	0.489040	0.242720	-2.119240	0.485040	0.149320	
141	1.4000	-2.106620	1.505340	0.160260	-2.159380	1.260940	0.165860	-1.968740	1.395610	0.174190	-1.948550	1.241820	0.176520	-2.036560	1.462220	-0.011880	-2.037600	1.143880	-0.078290	-1.958500	0.903710	-0.022850	-2.006410	0.897240	-0.068800	-1.961950	0.827600	-0.067340	-2.051560	1.476100	0.338830	-2.072940	1.163110	0.450990	-1.943110	0.952520	0.399680	-1.979270	0.939920	0.446830	-1.933980	0.882790	0.439820	-1.977830	0.975080	0.061970	-1.999250	0.982430	0.327280	-2.136510	1.089560	0.127630	-2.142170	1.090690	0.214100	-2.059000	0.677460	0.021080	-2.099220	0.490940	0.044970	-2.140470	0.292770	0.035560	-2.144360	0.087960	0.084560	-2.194760	0.105040	0.122810	-1.995730	0.050580	0.139690	-2.083240	0.684650	0.361100	-2.098850	0.494570	0.344600	-2.133780	0.321010	0.360700	-2.137820	0.079520	0.320730	-2.190510	0.100570	0.274690	-1.984210	0.050500	0.300430	-2.038440	0.036610	0.356140	-2.041900	0.041100	0.054380	-2.092990	0.488920	0.241970	-2.117920	0.485000	0.148780	
142	1.4100	-2.104900	1.505480	0.158830	-2.158150	1.261160	0.164410	-1.967200	1.395500	0.172920	-1.947280	1.241690	0.175300	-2.034610	1.462140	-0.013270	-2.035480	1.143650	-0.079230	-1.956930	0.903410	-0.023330	-2.004770	0.896990	-0.069330	-1.960500	0.827210	-0.067700	-2.050030	1.476200	0.337450	-2.072160	1.163360	0.449770	-1.942730	0.952420	0.398820	-1.978980	0.939940	0.445910	-1.933810	0.882710	0.438990	-1.976930	0.975020	0.060850	-1.998400	0.982610	0.326100	-2.135590	1.089580	0.126320	-2.141220	1.090780	0.212790	-2.057860	0.677370	0.020310	-2.097930	0.490760	0.044330	-2.139750	0.292650	0.035240	-2.144340	0.087900	0.084490	-2.194760	0.104990	0.122710	-1.995740	0.050550	0.139710	-2.081450	0.684670	0.360360	-2.096550	0.494510	0.343880	-2.132270	0.321110	0.360150	-2.137660	0.080210	0.320560	-2.190240	0.101450	0.274480	-1.984180	0.050490	0.300380	-2.038490	0.036900	0.356070	-2.041920	0.041050	0.054320	-2.090640	0.488790	0.241190	-2.116510	0.484960	0.148250	
143	1.4200	-2.103120	1.505640	0.157400	-2.156900	1.261400	0.162930	-1.965640	1.395390	0.171650	-1.945970	1.241560	0.174070	-2.032590	1.462080	-0.014660	-2.033250	1.143450	-0.080170	-1.955190	0.903140	-0.023830	-2.003020	0.896760	-0.069830	-1.958990	0.826820	-0.068020	-2.048470	1.476310	0.336070	-2.071450	1.163620	0.448540	-1.942500	0.952290	0.398010	-1.978830	0.939940	0.445010	-1.933800	0.882610	0.438210	-1.976030	0.974960	0.059720	-1.997550	0.982810	0.324900	-2.134660	1.089610	0.124990	-2.140260	1.090890	0.211460	-2.056690	0.677300	0.019560	-2.096580	0.490560	0.043700	-2.138980	0.292530	0.034940	-2.144310	0.087830	0.084430	-2.194750	0.104930	0.122620	-1.995740	0.050520	0.139730	-2.079530	0.684690	0.359580	-2.094030	0.494440	0.343150	-2.130610	0.321210	0.359580	-2.137490	0.080970	0.320360	-2.189940	0.102440	0.274220	-1.984140	0.050490	0.300330	-2.038560	0.037220	0.355990	-2.041950	0.040990	0.054260	-2.088030	0.488640	0.240380	-2.115020	0.484920	0.147740	
144	1.4300	-2.101290	1.505830	0.155950	-2.155620	1.261640	0.161440	-1.964030	1.395270	0.170380	-1.944640	1.241410	0.172830	-2.030480	1.462040	-0.016050	-2.030900	1.143260	-0.081100	-1.953230	0.902910	-0.024360	-2.001140	0.896550	-0.070290	-1.957390	0.826430	-0.068320	-2.046890	1.476420	0.334680	-2.070820	1.163900	0.447300	-1.942410	0.952140	0.397250	-1.978860	0.939940	0.444140	-1.933960	0.882480	0.437470	-1.975140	0.974910	0.058570	-1.996690	0.983020	0.323700	-2.133720	1.089640	0.123670	-2.139300	1.091000	0.210130	-2.055500	0.677220	0.018820	-2.095180	0.490360	0.043070	-2.138180	0.292410	0.034660	-2.144270	0.087760	0.084370	-2.194730	0.104860	0.122530	-1.995750	0.050500	0.139740	-2.077470	0.684710	0.358770	-2.091270	0.494340	0.342400	-2.128800	0.321300	0.358980	-2.137310	0.081800	0.320120	-2.189600	0.103540	0.273910	-1.984100	0.050490	0.300270	-2.038650	0.037560	0.355890	-2.041970	0.040940	0.054200	-2.085130	0.488480	0.239540	-2.113470	0.484880	0.147240	
145	1.4400	-2.099400	1.506040	0.154490	-2.154310	1.261880	0.159940	-1.962400	1.395150	0.169110	-1.943290	1.241260	0.171570	-2.028290	1.462020	-0.017440	-2.028410	1.143100	-0.082030	-1.951010	0.902720	-0.024920	-1.999090	0.896370	-0.070700	-1.955670	0.826030	-0.068590	-2.045290	1.476530	0.333300	-2.070280	1.164200	0.446060	-1.942490	0.951960	0.396550	-1.979060	0.939920	0.443320	-1.934300	0.882320	0.436780	-1.974240	0.974870	0.057420	-1.995810	0.983230	0.322500	-2.132770	1.089670	0.122360	-2.138330	1.091110	0.208800	-2.054280	0.677150	0.018080	-2.093730	0.490150	0.042440	-2.137320	0.292290	0.034390	-2.144220	0.087690	0.084320	-2.194710	0.104790	0.122450	-1.995760	0.050470	0.139760	-2.075290	0.684710	0.357900	-2.088250	0.494230	0.341660	-2.126810	0.321390	0.358360	-2.137100	0.082730	0.319850	-2.189210	0.104750	0.273570	-1.984060	0.050490	0.300220	-2.038750	0.037930	0.355780	-2.042000	0.040890	0.054140	-2.081930	0.488290	0.238690	-2.111870	0.484840	0.146730	
